<svg width="40" height="40" viewBox="0 0 40 40" fill="none" xmlns="http://www.w3.org/2000/svg">
  <rect width="40" height="40" rx="17" fill="#FCFCFC" />
  <path fill-rule="evenodd" clip-rule="evenodd"
    d="M12.4019 10H15.5981C16.9314 10 18 10.9437 18 12.1016V14.8992C18 16.0645 16.9314 17 15.5981 17H12.4019C11.078 17 10 16.0645 10 14.8992V12.1016C10 10.9437 11.078 10 12.4019 10ZM12.4019 18H15.5981C16.9314 18 18 19.6052 18 21.6028V26.3986C18 28.3822 16.9314 30 15.5981 30H12.4019C11.078 30 10 28.3822 10 26.3986V21.6028C10 19.6052 11.078 18 12.4019 18ZM26.6974 10H22.3026C20.4693 10 19 11.3482 19 13.0023V16.9988C19 18.6635 20.4693 20 22.3026 20H26.6974C28.5177 20 30 18.6635 30 16.9988V13.0023C30 11.3482 28.5177 10 26.6974 10ZM22.3026 21H26.6974C28.5177 21 30 22.2039 30 23.7021V27.2989C30 28.7866 28.5177 30 26.6974 30H22.3026C20.4693 30 19 28.7866 19 27.2989V23.7021C19 22.2039 20.4693 21 22.3026 21Z"
    fill="#232323" />
</svg>
