<svg width="15" height="15" viewBox="0 0 15 15" fill="none" xmlns="http://www.w3.org/2000/svg">
  <path d="M6.3018 10.4411L3.40909 7.54844L4.37333 6.5842L6.3018 8.51268L10.1587 4.65573L11.123 5.61997L6.3018 10.4411Z"
    fill="currentColor" id="icon" />
  <path fill-rule="evenodd" clip-rule="evenodd"
    d="M0 2.72727C0 1.22104 1.22104 0 2.72727 0H12.2727C13.779 0 15 1.22104 15 2.72727V12.2727C15 13.779 13.779 15 12.2727 15H2.72727C1.22104 15 0 13.779 0 12.2727V2.72727ZM2.72727 1.36364H12.2727C13.0258 1.36364 13.6364 1.97416 13.6364 2.72727V12.2727C13.6364 13.0258 13.0258 13.6364 12.2727 13.6364H2.72727C1.97416 13.6364 1.36364 13.0258 1.36364 12.2727V2.72727C1.36364 1.97416 1.97416 1.36364 2.72727 1.36364Z"
    fill="currentColor" />
</svg>
