<!doctype html>
<svg viewBox="493.775 236.953 32 32" width="32" height="32">
  <path
    d="M 525.775 241.953 C 525.775 239.192 523.537 236.953 520.775 236.953 L 498.775 236.953 C 496.014 236.953 493.775 239.192 493.775 241.953 L 493.775 263.953 C 493.775 266.715 496.014 268.953 498.775 268.953 L 520.775 268.953 C 523.537 268.953 525.775 266.715 525.775 263.953 L 525.775 241.953 Z"
    style="fill: rgb(255, 68, 34);"></path>
  <path style=" stroke:none;fill-rule:nonzero;fill:rgb(100%,100%,100%);fill-opacity:1;"
    d="M 512.091 250.12 C 511.666 247.503 510.666 245.667 509.498 245.667 C 508.33 245.667 507.33 247.503 506.904 250.12 Z M 506.685 252.932 C 506.685 253.581 506.72 254.206 506.783 254.807 L 512.213 254.807 C 512.271 254.206 512.306 253.581 512.306 252.932 C 512.306 252.284 512.271 251.659 512.213 251.057 L 506.783 251.057 C 506.72 251.659 506.685 252.284 506.685 252.932 Z M 516.197 250.12 C 515.361 248.132 513.662 246.593 511.568 245.972 C 512.283 246.96 512.775 248.452 513.033 250.12 Z M 507.424 245.972 C 505.334 246.593 503.634 248.132 502.799 250.12 L 505.963 250.12 C 506.216 248.452 506.709 246.96 507.424 245.972 Z M 516.509 251.057 L 513.15 251.057 C 513.213 251.675 513.248 252.304 513.248 252.932 C 513.248 253.561 513.213 254.19 513.15 254.807 L 516.509 254.807 C 516.67 254.206 516.759 253.581 516.759 252.932 C 516.759 252.284 516.67 251.659 516.509 251.057 Z M 505.748 252.932 C 505.748 252.304 505.783 251.675 505.845 251.057 L 502.486 251.057 C 502.326 251.659 502.232 252.284 502.232 252.932 C 502.232 253.581 502.326 254.206 502.486 254.807 L 505.841 254.807 C 505.783 254.19 505.748 253.561 505.748 252.932 Z M 506.904 255.745 C 507.33 258.362 508.33 260.198 509.498 260.198 C 510.666 260.198 511.666 258.362 512.091 255.745 Z M 511.572 259.893 C 513.662 259.272 515.361 257.733 516.201 255.745 L 513.037 255.745 C 512.779 257.413 512.287 258.905 511.572 259.893 Z M 502.799 255.745 C 503.634 257.733 505.334 259.272 507.427 259.893 C 506.713 258.905 506.22 257.413 505.963 255.745 Z M 502.799 255.745">
  </path>
</svg>
